<?xml version="1.0" encoding="utf-8"?>
<!-- Generator: Adobe Illustrator 16.0.0, SVG Export Plug-In . SVG Version: 6.00 Build 0)  -->
<svg version="1.1" id="Capa_1" xmlns="http://www.w3.org/2000/svg" x="0px" y="0px"
	 width="64px" height="64px" viewBox="0 0 64 64" enable-background="new 0 0 64 64" xml:space="preserve">
<path fill="#707070" d="M63,20v3H3v-3c0,0,0-3,3-3h54C60,17,63,17,63,20z"/>
<g>
	<path fill="#AEAEAE" d="M63,23v29c0,0,0,3-3,3H6c0,0-3,0-3-3V23H63z"/>
</g>
<g>
	<path fill="#FAF1D8" d="M58,37c0,9-7,9-7,9H13c0,0-7,0-7-9c0,0,0-9,7-9h38C58,28,58,37,58,37z"/>
</g>
<g>
	<path fill="#3D3C3E" d="M50,28c5.909,0,5.999,7.675,6,8c0,7.847-5.76,7.997-6,8H12c-0.245,0-6-0.091-6-7.999
		C6.001,35.675,6.091,28,12,28H50 M50,27H12c-7,0-7,9-7,9c0,9,7,9,7,9h38c0,0,7,0,7-9C57,36,57,27,50,27L50,27z"/>
</g>
<g>
	<rect x="19" y="27" fill="#69ADA5" width="24" height="18"/>
</g>
<rect x="2" y="20" fill="#3D3C3E" width="59" height="1"/>
<g>
	<rect x="22" y="33" fill="#FAF1D8" width="20" height="11"/>
</g>
<path fill="#3D3C3E" d="M19,32v-1c-2.76,0-5,2.24-5,5s2.24,5,5,5v-1c-2.21,0-4-1.79-4-4S16.79,32,19,32z"/>
<path fill="#3D3C3E" d="M10,36c0-3.48,1.99-6.51,4.89-8h-1.88C10.58,29.82,9,32.73,9,36s1.58,6.18,4.01,8h1.88
	C11.99,42.51,10,39.48,10,36z"/>
<path fill="#3D3C3E" d="M47,36c0,2.21-1.79,4-4,4v1c2.76,0,5-2.24,5-5s-2.24-5-5-5v1C45.21,32,47,33.79,47,36z"/>
<path fill="#3D3C3E" d="M47.109,44h1.881c2.43-1.82,4.01-4.73,4.01-8s-1.58-6.18-4.01-8h-1.881C50.01,29.49,52,32.52,52,36
	S50.01,42.51,47.109,44z"/>
<rect x="23" y="39" fill="#3D3C3E" width="16" height="1"/>
<rect x="23" y="36" fill="#3D3C3E" width="16" height="1"/>
<g>
	<path fill="#3D3C3E" d="M58,16c0.334,0,2,0.096,2,2v32c0,0.334-0.097,2-2,2H4c-0.334,0-2-0.097-2-2V18c0-0.334,0.096-2,2-2H58
		 M58,15H4c-3,0-3,3-3,3v32c0,3,3,3,3,3h54c3,0,3-3,3-3V18C61,15,58,15,58,15L58,15z"/>
</g>
<g>
	<path fill="#3D3C3E" d="M42,28v16H20V28H42 M43,27H19v18h24V27L43,27z"/>
</g>
<g>
	<path fill="#3D3C3E" d="M40,33v9H22v-9H40 M41,32H21v11h20V32L41,32z"/>
</g>
<path fill="#707070" d="M52,36c0,3.48-1.99,6.51-4.89,8H43v-3c2.76,0,5-2.24,5-5s-2.24-5-5-5v-3h4.11C50.01,29.49,52,32.52,52,36z"
	/>
<path fill="#707070" d="M14,36c0,2.76,2.24,5,5,5v3h-4.11C11.99,42.51,10,39.48,10,36c0-3.48,1.99-6.51,4.89-8H19v3
	C16.24,31,14,33.24,14,36z"/>
</svg>
