<?xml version="1.0" encoding="utf-8"?>
<!-- Generator: Adobe Illustrator 16.0.0, SVG Export Plug-In . SVG Version: 6.00 Build 0)  -->
<svg version="1.1" id="Capa_1" xmlns="http://www.w3.org/2000/svg" x="0px" y="0px"
	 width="64px" height="64px" viewBox="0 0 64 64" enable-background="new 0 0 64 64" xml:space="preserve">
<g>
	<circle fill="#FAF1D8" cx="32" cy="22" r="17"/>
</g>
<g>
	<path fill="#3D3C3E" d="M32,6c8.822,0,16,7.178,16,16s-7.178,16-16,16s-16-7.178-16-16S23.178,6,32,6 M32,5
		c-9.389,0-17,7.611-17,17s7.611,17,17,17s17-7.611,17-17S41.389,5,32,5L32,5z"/>
</g>
<path fill="#70B8E0" d="M59,23v5c0,0.55-0.45,1-1,1h-3c-0.55,0-1-0.45-1-1v-3c0-0.33,0.17-0.65,0.45-0.83l3-2
	C57.61,22.06,57.81,22,58,22c0.16,0,0.32,0.04,0.47,0.12C58.8,22.29,59,22.63,59,23z"/>
<g>
	<path fill="#707070" d="M40.778,12.394c0,0,0.707-0.707,1.414,0l1.414,1.414c0,0,0.707,0.707,0,1.414l-2.829,2.829
		c0,0-0.707,0.707-1.414,0l-1.414-1.414c0,0-0.707-0.707,0-1.414S40.778,12.394,40.778,12.394z"/>
</g>
<g>
	<path fill="#707070" d="M31,10c0,0,0-1,1-1l2,0c0,0,1,0,1,1v4.001c0,0,0,1-1,1h-2c0,0-1,0-1-1C31,13.001,31,10,31,10z"/>
</g>
<g>
	<path fill="#707070" d="M22.394,15.222c0,0-0.707-0.707,0-1.414l1.414-1.414c0,0,0.707-0.707,1.414,0l2.829,2.829
		c0,0,0.707,0.707,0,1.414l-1.414,1.414c0,0-0.707,0.707-1.414,0S22.394,15.222,22.394,15.222z"/>
</g>
<g>
	<path fill="#3D3C3E" d="M40.485,12.101l1.395,1.394c0.005,0.006,0.011,0.014,0.017,0.023l-2.806,2.807
		c-0.007,0.005-0.015,0.012-0.022,0.017l-1.393-1.391c-0.005-0.006-0.011-0.014-0.017-0.023L40.485,12.101L40.485,12.101
		 M40.512,11.079c-0.419,0-0.733,0.314-0.733,0.314s-2.122,2.122-2.829,2.829s0,1.414,0,1.414l1.414,1.414
		c0.235,0.236,0.472,0.314,0.681,0.314c0.419,0,0.733-0.314,0.733-0.314l2.829-2.829c0.707-0.707,0-1.414,0-1.414l-1.414-1.414
		C40.957,11.158,40.721,11.079,40.512,11.079L40.512,11.079z"/>
</g>
<g>
	<path fill="#3D3C3E" d="M32.978,9C32.985,9.001,32.992,9.002,33,9.003l0.001,3.969c-0.001,0.008-0.002,0.018-0.004,0.028l-1.968,0
		C31.02,13.001,31.01,13,31,12.998l0-3.969C31,9.021,31.001,9.011,31.003,9L32.978,9 M33,8l-2,0c-1,0-1,1-1,1s0,3.001,0,4.001
		c0,1,1,1,1,1h2c1,0,1-1,1-1V9C34,8,33,8,33,8L33,8z"/>
</g>
<g>
	<path fill="#3D3C3E" d="M23.515,12.101L23.515,12.101l2.829,2.829l-1.394,1.395c-0.006,0.005-0.015,0.012-0.022,0.017l-2.827-2.826
		L23.515,12.101 M23.541,11.079c-0.419,0-0.733,0.314-0.733,0.314l-1.414,1.414c-0.707,0.707,0,1.414,0,1.414
		s2.122,2.122,2.829,2.829c0.236,0.236,0.471,0.314,0.681,0.314c0.419,0,0.733-0.314,0.733-0.314l1.414-1.414
		c0.707-0.707,0-1.414,0-1.414l-2.829-2.829C23.986,11.158,23.75,11.079,23.541,11.079L23.541,11.079z"/>
</g>
<path fill="#DF5754" d="M55,20c0,14.33-0.4,31.81-2.29,33.71c-2.11,2.1-15.57,3.05-19.649,3.29h-0.121
	c-4.08-0.24-17.54-1.19-19.649-3.29C11.4,51.81,11,34.33,11,20c0-0.51,0.38-0.94,0.89-0.99l9-1C20.93,18,20.96,18,21,18
	c0.18,0,0.36,0.05,0.51,0.14C21.56,18.17,26.35,21,33,21c6.6,0,11.41-2.81,11.49-2.86C44.64,18.05,44.82,18,45,18
	c0.04,0,0.07,0,0.11,0.01l9,1C54.62,19.06,55,19.49,55,20z"/>
<path fill="#3D3C3E" d="M51.14,20.01l-7-1C44.09,19,44.05,19,44,19c-0.16,0-0.32,0.04-0.46,0.11C42.16,19.83,37.95,22,32,22
	s-10.16-2.17-11.54-2.89C20.32,19.04,20.16,19,20,19c-0.05,0-0.09,0-0.14,0.01l-7,1C12.36,20.08,12,20.5,12,21
	c0.01,1.98,0.02,4,0.05,6h1c-0.03-1.93-0.04-3.93-0.05-6l7-1c1.64,0.85,5.91,3,12,3s10.36-2.15,12-3l7,1
	c-0.01,2.07-0.02,4.07-0.05,6h1c0.03-2,0.04-4.02,0.05-6C52,20.5,51.63,20.08,51.14,20.01z"/>
<path fill="#C99D67" d="M38.98,31.8c0.06,0.3-0.021,0.6-0.211,0.83C38.58,32.87,38.3,33,38,33H28c-0.3,0-0.58-0.13-0.77-0.37
	c-0.19-0.23-0.27-0.53-0.21-0.83l1-5c0.09-0.46,0.5-0.8,0.98-0.8h8c0.48,0,0.89,0.34,0.98,0.8L38.98,31.8z"/>
<line fill="none" stroke="#3D3C3E" stroke-linecap="square" stroke-miterlimit="10" x1="27.5" y1="27.5" x2="30.347" y2="31.296"/>
<line fill="none" stroke="#3D3C3E" stroke-linecap="square" stroke-miterlimit="10" x1="36.5" y1="27.5" x2="33.708" y2="31.223"/>
<g>
	<path fill="#3D3C3E" d="M44,18l9,1c0,2,0,31-2,33s-19,3-19,3s-17-1-19-3s-2-31-2-33l9-1c0,0,5,3,12,3S44,18,44,18 M44,17
		c-0.181,0-0.358,0.049-0.514,0.142C43.412,17.186,38.599,20,32,20c-6.646,0-11.438-2.829-11.485-2.857
		C20.358,17.049,20.181,17,20,17c-0.037,0-0.074,0.002-0.11,0.006l-9,1C10.383,18.063,10,18.49,10,19
		c0,14.331,0.398,31.813,2.293,33.707c2.105,2.105,15.571,3.052,19.648,3.291C31.961,55.999,31.98,56,32,56s0.039-0.001,0.059-0.002
		c4.077-0.239,17.543-1.186,19.648-3.291C53.603,50.813,54,33.331,54,19c0-0.51-0.383-0.938-0.89-0.994l-9-1
		C44.073,17.002,44.037,17,44,17L44,17z"/>
</g>
<g>
	<path fill="#3D3C3E" d="M57,22v5h-3v-3L57,22 M57,21c-0.194,0-0.388,0.056-0.555,0.168l-3,2C53.167,23.354,53,23.666,53,24v3
		c0,0.552,0.447,1,1,1h3c0.553,0,1-0.448,1-1v-5c0-0.369-0.203-0.708-0.528-0.882C57.324,21.039,57.162,21,57,21L57,21z"/>
</g>
<g>
	<path fill="#DF5754" d="M3,30c0,0,0-2,2-2s20,0,20,0s1,0,1,1s0,9,0,11s-8,6-15,6H5c0,0-2,0-2-2V30z"/>
</g>
<g>
	<circle fill="#707070" cx="14" cy="37" r="5"/>
</g>
<g>
	<path fill="#3D3C3E" d="M23.978,28c0.007,0.001,0.014,0.002,0.022,0.003l0.002,10.964C23.724,40.164,16.913,44,10,44H4.012
		C3.55,43.988,3,43.806,3,43V29.012C3.012,28.55,3.195,28,4,28H23.978 M24,27c0,0-18,0-20,0s-2,2-2,2v14c0,2,2,2,2,2h6
		c7,0,15-4,15-6s0-10,0-11S24,27,24,27L24,27z"/>
</g>
<g>
	<path fill="#DF5754" d="M63,30c0,0,0-2-2-2s-20,0-20,0s-1,0-1,1s0,9,0,11s8,6,15,6h6c0,0,2,0,2-2V30z"/>
</g>
<g>
	<circle fill="#707070" cx="52" cy="37" r="5"/>
</g>
<g>
	<path fill="#3D3C3E" d="M60,28c0.806,0,0.988,0.55,1,1v14c0,0.806-0.55,0.988-1,1h-6c-6.912,0-13.724-3.836-14-5V28c0,0,0,0,0,0H60
		 M60,27c-2,0-20,0-20,0s-1,0-1,1s0,9,0,11s8,6,15,6h6c0,0,2,0,2-2V29C62,29,62,27,60,27L60,27z"/>
</g>
<g>
	<path fill="#3D3C3E" d="M36,26l1,5H27l1-5H36 M36,25h-8c-0.477,0-0.887,0.336-0.98,0.804l-1,5c-0.059,0.294,0.017,0.599,0.207,0.83
		C26.417,31.866,26.7,32,27,32h10c0.3,0,0.583-0.134,0.773-0.366c0.189-0.231,0.266-0.536,0.207-0.83l-1-5
		C36.887,25.336,36.477,25,36,25L36,25z"/>
</g>
<circle fill="#AEAEAE" cx="15" cy="35" r="3"/>
<circle fill="#AEAEAE" cx="54" cy="35" r="3"/>
<g>
	<path fill="#3D3C3E" d="M13,32c2.206,0,4,1.794,4,4s-1.794,4-4,4s-4-1.794-4-4S10.794,32,13,32 M13,31c-2.761,0-5,2.238-5,5
		s2.239,5,5,5s5-2.238,5-5S15.761,31,13,31L13,31z"/>
</g>
<g>
	<path fill="#3D3C3E" d="M51,32c2.206,0,4,1.794,4,4s-1.794,4-4,4s-4-1.794-4-4S48.794,32,51,32 M51,31c-2.762,0-5,2.238-5,5
		s2.238,5,5,5s5-2.238,5-5S53.762,31,51,31L51,31z"/>
</g>
<rect x="24" y="33" fill="#3D3C3E" width="16" height="1"/>
<rect x="29" y="29" fill="#3D3C3E" width="6" height="1"/>
</svg>
