<?xml version="1.0" encoding="utf-8"?>
<!-- Generator: Adobe Illustrator 16.0.0, SVG Export Plug-In . SVG Version: 6.00 Build 0)  -->
<svg version="1.1" id="Capa_1" xmlns="http://www.w3.org/2000/svg" x="0px" y="0px"
	 width="64px" height="64px" viewBox="0 0 64 64" enable-background="new 0 0 64 64" xml:space="preserve">
<g>
	<path fill="#707070" d="M60,53c0,1-1,1-1,1S9,54,8,54s-1-1-1-1c0-0.5,0.75-1.25,1.5-2s1.5-1.5,1.5-2c0-1-2-3-2-3h51c0,0-2,2-2,3
		S60,52,60,53z"/>
</g>
<g>
	<path fill="#AEAEAE" d="M3,10c0,0,0-2,2-2h57c0,0,2,0,2,2s0,35,0,35s0,2-2,2S5,47,5,47s-2,0-2-2S3,10,3,10z"/>
</g>
<g>
	<path fill="#AEAEAE" d="M48,11c0,0,0-1,1-1h10c0,0,1,0,1,1s0,31,0,31s0,1-1,1s-10,0-10,0s-1,0-1-1S48,11,48,11z"/>
</g>
<rect x="48" y="29" fill="#707070" width="12" height="7"/>
<g>
	<path fill="#707070" d="M46,11c0,0-36.001,0-38,0s-2,2-2,2v28c0,0,0,2,2,2c1.722,0,30.141,0,38,0c2,0,2-2,2-2V13C48,13,48,11,46,11
		z"/>
</g>
<g>
	<path fill="#FAF1D8" d="M44,17c0,0,0-4-4-4c-7.887,0-24.945,0-28,0c-4,0-4,4-4,4v18c0,0,0,4,4,4c3.056,0,20.114,0,28,0c4,0,4-4,4-4
		V17z"/>
</g>
<g>
	<path fill="#3D3C3E" d="M45,11.155c0.202,0,0.818,0,0.845,0.845v27.983c-0.026,0.861-0.643,0.861-0.845,0.861H7
		c-0.203,0-0.819,0-0.845-0.845V12c0-0.315,0.109-0.845,0.844-0.845H45 M45,10c0,0-36.001,0-38,0s-2,2-2,2v28c0,0,0,2,2,2
		c1.722,0,30.141,0,38,0c2,0,2-2,2-2V12C47,12,47,10,45,10L45,10z"/>
</g>
<g>
	<path fill="#707070" d="M51,16c0,0,0-1,1-1h6c0,0,1,0,1,1v4c0,0,0,1-1,1h-6c0,0-1,0-1-1V16z"/>
</g>
<g>
	<path fill="#707070" d="M51,23c0,0,0-1,1-1h6c0,0,1,0,1,1v4c0,0,0,1-1,1h-6c0,0-1,0-1-1V23z"/>
</g>
<g>
	<circle fill="#FAF1D8" cx="51" cy="39" r="1"/>
</g>
<g>
	<circle fill="#FAF1D8" cx="54" cy="39" r="1"/>
</g>
<g>
	<circle fill="#FAF1D8" cx="57" cy="39" r="1"/>
</g>
<g>
	<rect x="16" y="46" fill="#5FDB76" width="7" height="3"/>
</g>
<g>
	<rect x="24" y="46" fill="#AEAEAE" width="7" height="3"/>
</g>
<g>
	<rect x="32" y="46" fill="#FF6A8C" width="7" height="3"/>
</g>
<g>
	<path fill="#3D3C3E" d="M21,46v1h-5v-1H21 M22,45h-7v3h7V45L22,45z"/>
</g>
<g>
	<path fill="#3D3C3E" d="M29,46v1h-5v-1H29 M30,45h-7v3h7V45L30,45z"/>
</g>
<g>
	<path fill="#3D3C3E" d="M37,46v1h-5v-1H37 M38,45h-7v3h7V45L38,45z"/>
</g>
<g>
	<path fill="#3D3C3E" d="M40,14c2.823,0,2.994,2.503,3,3v17.994C42.994,35.496,42.823,38,40,38H12c-2.823,0-2.994-2.504-3-3V17
		c0-0.307,0.084-3,3-3H40 M40,13c-7.886,0-24.945,0-28,0c-4,0-4,4-4,4v18c0,0,0,4,4,4c3.056,0,20.114,0,28,0c4,0,4-4,4-4V17
		C44,17,44,13,40,13L40,13z"/>
</g>
<g>
	<path fill="#3D3C3E" d="M56.979,15c0.007,0.001,0.014,0.002,0.021,0.003l0.001,3.968C57,18.98,56.999,18.99,56.996,19l-5.968,0
		C51.02,19,51.01,18.999,51,18.997l-0.001-3.968C51,15.02,51.001,15.01,51.004,15H56.979 M57,14h-6c-1,0-1,1-1,1v4c0,1,1,1,1,1h6
		c1,0,1-1,1-1v-4C58,14,57,14,57,14L57,14z"/>
</g>
<g>
	<path fill="#3D3C3E" d="M56.979,22c0.007,0.001,0.014,0.002,0.021,0.003l0.001,3.968C57,25.98,56.999,25.99,56.996,26l-5.968,0
		C51.02,26,51.01,25.999,51,25.997l-0.001-3.968C51,22.02,51.001,22.01,51.004,22H56.979 M57,21h-6c-1,0-1,1-1,1v4c0,1,1,1,1,1h6
		c1,0,1-1,1-1v-4C58,21,57,21,57,21L57,21z"/>
</g>
<g>
	<path fill="#3D3C3E" d="M58.979,11c0.007,0.001,0.014,0.002,0.021,0.003l0.001,30.968C59,41.98,58.999,41.99,58.996,42
		l-9.968,0.001C49.02,42,49.01,41.999,49,41.996l-0.001-30.968C49,11.02,49.001,11.01,49.004,11H58.979 M59,10H49c-1,0-1,1-1,1
		s0,30,0,31s1,1,1,1s9,0,10,0s1-1,1-1s0-30,0-31S59,10,59,10L59,10z"/>
</g>
<rect x="49" y="29" fill="#3D3C3E" width="10" height="1"/>
<rect x="49" y="31" fill="#3D3C3E" width="10" height="1"/>
<rect x="49" y="33" fill="#3D3C3E" width="10" height="1"/>
<rect x="49" y="35" fill="#3D3C3E" width="10" height="1"/>
<g>
	<path fill="#3D3C3E" d="M51,38c0.553,0,1,0.447,1,1s-0.447,1-1,1s-1-0.447-1-1S50.447,38,51,38 M51,37c-1.103,0-2,0.897-2,2
		s0.897,2,2,2s2-0.897,2-2S52.103,37,51,37L51,37z"/>
</g>
<g>
	<path fill="#3D3C3E" d="M54,38c0.553,0,1,0.447,1,1s-0.447,1-1,1s-1-0.447-1-1S53.447,38,54,38 M54,37c-1.103,0-2,0.897-2,2
		s0.897,2,2,2s2-0.897,2-2S55.103,37,54,37L54,37z"/>
</g>
<g>
	<path fill="#3D3C3E" d="M57,38c0.553,0,1,0.447,1,1s-0.447,1-1,1s-1-0.447-1-1S56.447,38,57,38 M57,37c-1.103,0-2,0.897-2,2
		s0.897,2,2,2s2-0.897,2-2S58.103,37,57,37L57,37z"/>
</g>
<g>
	<path fill="#3D3C3E" d="M60.992,8C61.453,8.013,62,8.197,62,9v34.988C61.988,44.45,61.806,45,61,45H4.012
		C3.55,44.988,3,44.806,3,44V9.012C3.012,8.55,3.195,8,4,8H60.992 M61,7H4C2,7,2,9,2,9s0,33,0,35s2,2,2,2s55,0,57,0s2-2,2-2
		s0-33,0-35S61,7,61,7L61,7z"/>
</g>
<g>
	<path fill="#3D3C3E" d="M55.836,46C55.373,46.661,55,47.385,55,48c0,0.914,0.831,1.745,1.793,2.707
		c0.375,0.375,0.976,0.976,1.169,1.293H7.039c0.192-0.317,0.793-0.918,1.168-1.293C9.169,49.745,10,48.914,10,48
		c0-0.615-0.373-1.339-0.836-2H55.836 M58,45H7c0,0,2,2,2,3c0,0.5-0.75,1.25-1.5,2S6,51.5,6,52c0,0,0,1,1,1s51,0,51,0s1,0,1-1
		s-3-3-3-4S58,45,58,45L58,45z"/>
</g>
</svg>
