<?xml version="1.0" encoding="utf-8"?>
<!-- Generator: Adobe Illustrator 16.0.0, SVG Export Plug-In . SVG Version: 6.00 Build 0)  -->
<svg version="1.1" id="Capa_1" xmlns="http://www.w3.org/2000/svg" x="0px" y="0px"
	 width="64px" height="64px" viewBox="0 0 64 64" enable-background="new 0 0 64 64" xml:space="preserve">
<g>
	<path fill="#F5AD60" d="M54,30v16c0,0,0,1,1,1h3V29h-3C55,29,54,29,54,30z"/>
</g>
<path fill="#AEAEAE" d="M58,29v18h1c0,0,4,0,4-9s-4-9-4-9H58z"/>
<g>
	<path fill="#F5AD60" d="M11,29v16c0,0,0,1-1,1H7V28h3C10,28,11,28,11,29z"/>
</g>
<path fill="#AEAEAE" d="M7,28v18H6c0,0-4,0-4-9s4-9,4-9H7z"/>
<g>
	<path fill="#6480D8" d="M17,18c0,0,0-2,2-2h26v47H19c0,0-2,0-2-2S17,18,17,18z"/>
</g>
<g>
	<path fill="#AEAEAE" d="M51,18c0,0,0-2-2-2h-5v47h5c0,0,2,0,2-2S51,18,51,18z"/>
</g>
<g>
	<path fill="#707070" d="M48,26h2c0,0,1,0,1,1v5c0,0,0,1-1,1h-2V26z"/>
</g>
<g>
	<path fill="#707070" d="M48,19h2c0,0,1,0,1,1v3c0,0,0,1-1,1h-2V19z"/>
</g>
<g>
	<g>
		<path fill="#3D3C3E" d="M45.5,46c0.275,0,0.5,0.225,0.5,0.5S45.775,47,45.5,47S45,46.775,45,46.5S45.225,46,45.5,46 M45.5,45
			c-0.828,0-1.5,0.672-1.5,1.5s0.672,1.5,1.5,1.5s1.5-0.672,1.5-1.5S46.328,45,45.5,45L45.5,45z"/>
	</g>
</g>
<rect x="16" y="23" fill="#3D3C3E" width="26" height="1"/>
<g>
	<path fill="#707070" d="M21,32c0,0,0-2,2-2h8c0,0,2,0,2,2v22c0,0,0,2-2,2s-8,0-8,0s-2,0-2-2S21,32,21,32z"/>
</g>
<rect x="24" y="37" fill="#AEAEAE" width="5" height="10"/>
<g>
	<g>
		<path fill="#3D3C3E" d="M26,33c1.103,0,2,0.897,2,2s-0.897,2-2,2s-2-0.897-2-2S24.897,33,26,33 M26,32c-1.657,0-3,1.344-3,3
			c0,1.657,1.343,3,3,3s3-1.343,3-3C29,33.344,27.657,32,26,32L26,32z"/>
	</g>
</g>
<g>
	<g>
		<path fill="#3D3C3E" d="M26,47c1.103,0,2,0.897,2,2s-0.897,2-2,2s-2-0.897-2-2S24.897,47,26,47 M26,46c-1.657,0-3,1.344-3,3
			c0,1.657,1.343,3,3,3s3-1.343,3-3C29,47.344,27.657,46,26,46L26,46z"/>
	</g>
</g>
<rect x="23" y="35" fill="#3D3C3E" width="1" height="14"/>
<rect x="28" y="35" fill="#3D3C3E" width="1" height="14"/>
<g>
	<path fill="#F5AD60" d="M23,17v-3c0,0,0-1,1-1h6c0,0,1,0,1,1v3H23z"/>
</g>
<rect x="6" y="28" fill="#3D3C3E" width="1" height="16"/>
<rect x="57" y="28" fill="#3D3C3E" width="1" height="16"/>
<path fill="none" stroke="#3D3C3E" stroke-miterlimit="10" d="M7.5,27.5c0,0-0.5-26,24.5-26c25.005,0,24.5,26,24.5,26"/>
<g>
	<g>
		<path fill="#3D3C3E" d="M42,16v45H17.012C16.55,60.988,16,60.806,16,60V17.012C16.012,16.55,16.195,16,17,16H42 M43,15H17
			c-2,0-2,2-2,2s0,41,0,43s2,2,2,2h26V15L43,15z"/>
	</g>
</g>
<g>
	<path fill="#3D3C3E" d="M29.992,30C30.453,30.013,31,30.197,31,31v21.988C30.988,53.45,30.805,54,30,54h-7.988
		C21.55,53.988,21,53.806,21,53V31.012C21.012,30.55,21.195,30,22,30H29.992 M30,29h-8c-2,0-2,2-2,2s0,20,0,22s2,2,2,2s6,0,8,0
		s2-2,2-2V31C32,29,30,29,30,29L30,29z"/>
</g>
<g>
	<g>
		<path fill="#3D3C3E" d="M47,16c0.806,0,0.988,0.55,1,1v43c0,0.806-0.55,0.988-1,1h-4V16H47 M47,15h-5v47h5c0,0,2,0,2-2s0-43,0-43
			S49,15,47,15L47,15z"/>
	</g>
</g>
<g>
	<g>
		<path fill="#3D3C3E" d="M28.978,13c0.007,0.001,0.014,0.002,0.022,0.003V15h-6l0-1.972c0-0.008,0.002-0.018,0.004-0.028H28.978
			 M29,12h-6c-1,0-1,1-1,1v3h8v-3C30,12,29,12,29,12L29,12z"/>
	</g>
</g>
<g>
	<g>
		<path fill="#3D3C3E" d="M49.979,26c0.007,0.001,0.014,0.002,0.021,0.003l0.001,4.968C50,30.98,49.999,30.99,49.996,31H49v-5
			H49.979 M50,25h-2v7h2c1,0,1-1,1-1v-5C51,25,50,25,50,25L50,25z"/>
	</g>
</g>
<g>
	<g>
		<path fill="#3D3C3E" d="M49.979,19c0.007,0.001,0.014,0.002,0.021,0.003l0.001,2.968C50,21.98,49.999,21.99,49.996,22H49v-3
			H49.979 M50,18h-2v5h2c1,0,1-1,1-1v-3C51,18,50,18,50,18L50,18z"/>
	</g>
</g>
<g>
	<g>
		<path fill="#3D3C3E" d="M9.978,28c0.007,0.001,0.014,0.002,0.022,0.003l0,15.968C10,43.98,9.999,43.99,9.997,44L6.03,44.001
			C6,43.999,3,43.712,3,36s3-7.999,3-8H9.978 M10,27H6c0,0-4,0-4,9s4,9,4,9h4c1,0,1-1,1-1V28C11,27,10,27,10,27L10,27z"/>
	</g>
</g>
<g>
	<g>
		<path fill="#3D3C3E" d="M57.976,28C58.133,28.018,61,28.46,61,36c0,7.712-3,7.999-3,8h-4l0,0l0,0V28c0,0,0,0,0,0H57.976 M58,27h-4
			c0,0-1,0-1,1v16c0,0,0,1,1,1h4c0,0,4,0,4-9S58,27,58,27L58,27z"/>
	</g>
</g>
<path fill="#FFFFFF" d="M37,57.5c0-0.276-0.224-0.5-0.5-0.5h-16c-0.276,0-0.5,0.224-0.5,0.5l0,0c0,0.276,0.224,0.5,0.5,0.5h16
	C36.776,58,37,57.776,37,57.5L37,57.5z"/>
<path fill="#FFFFFF" d="M31,20.5c0-0.276-0.224-0.5-0.5-0.5h-12c-0.276,0-0.5,0.224-0.5,0.5l0,0c0,0.276,0.224,0.5,0.5,0.5h12
	C30.776,21,31,20.776,31,20.5L31,20.5z"/>
<polyline fill="none" stroke="#FFFFFF" stroke-linecap="round" stroke-linejoin="round" stroke-miterlimit="10" points="35.5,38.5 
	37.5,36.5 39.5,38.5 "/>
<path fill="#FFFFFF" d="M38,47.5c0,0.276-0.224,0.5-0.5,0.5l0,0c-0.276,0-0.5-0.224-0.5-0.5v-10c0-0.276,0.224-0.5,0.5-0.5l0,0
	c0.276,0,0.5,0.224,0.5,0.5V47.5z"/>
</svg>
